<svg width="46" height="28" viewBox="0 0 46 28" fill="none" xmlns="http://www.w3.org/2000/svg">
<mask id="path-1-inside-1_289_1781" fill="white">
<path d="M32.6291 14.0413L23.128 1.54133H24.3572C25.2322 1.54133 26.0562 1.94967 26.5853 2.64654L33.9385 12.3205L41.2916 2.64654C41.8197 1.94967 42.6437 1.54133 43.5187 1.54133H44.7478L35.2468 14.0413L45.1916 27.1247H43.9624C43.0874 27.1247 42.2635 26.7163 41.7343 26.0195L33.9374 15.7622L26.1405 26.0195C25.6114 26.7153 24.7874 27.1247 23.9124 27.1247H22.6833L32.6291 14.0413ZM2.16659 15.083V15.8986C2.16659 20.2726 5.05825 24.2653 9.32075 25.2445C13.9447 26.307 18.1645 23.9455 19.9749 20.2007C20.2562 19.6195 20.8416 19.2497 21.4864 19.2497H22.5572C21.1833 24.0986 16.7072 27.6445 11.4041 27.582C5.05929 27.507 0.083252 22.0559 0.083252 15.2309V15.083V12.9997V12.2538C0.083252 6.60071 4.05408 1.55279 9.63638 0.653835C16.8072 -0.501374 22.9999 5.00488 22.9999 11.958V15.083H2.16659ZM2.16659 12.9997H20.9166V11.958C20.9166 6.07467 15.4978 1.458 9.37908 2.82467C5.08742 3.78404 2.16659 7.79342 2.16659 12.6976V12.9997Z"/>
</mask>
<path d="M32.6291 14.0413L23.128 1.54133H24.3572C25.2322 1.54133 26.0562 1.94967 26.5853 2.64654L33.9385 12.3205L41.2916 2.64654C41.8197 1.94967 42.6437 1.54133 43.5187 1.54133H44.7478L35.2468 14.0413L45.1916 27.1247H43.9624C43.0874 27.1247 42.2635 26.7163 41.7343 26.0195L33.9374 15.7622L26.1405 26.0195C25.6114 26.7153 24.7874 27.1247 23.9124 27.1247H22.6833L32.6291 14.0413ZM2.16659 15.083V15.8986C2.16659 20.2726 5.05825 24.2653 9.32075 25.2445C13.9447 26.307 18.1645 23.9455 19.9749 20.2007C20.2562 19.6195 20.8416 19.2497 21.4864 19.2497H22.5572C21.1833 24.0986 16.7072 27.6445 11.4041 27.582C5.05929 27.507 0.083252 22.0559 0.083252 15.2309V15.083V12.9997V12.2538C0.083252 6.60071 4.05408 1.55279 9.63638 0.653835C16.8072 -0.501374 22.9999 5.00488 22.9999 11.958V15.083H2.16659ZM2.16659 12.9997H20.9166V11.958C20.9166 6.07467 15.4978 1.458 9.37908 2.82467C5.08742 3.78404 2.16659 7.79342 2.16659 12.6976V12.9997Z" fill="url(#paint0_linear_289_1781)"/>
<path d="M32.6291 14.0413L47.7548 25.5397L56.4951 14.0421L47.7556 2.54395L32.6291 14.0413ZM23.128 1.54133V-17.4587H-15.179L8.00157 13.0387L23.128 1.54133ZM26.5853 2.64654L11.4535 14.1368L11.4589 14.144L26.5853 2.64654ZM33.9385 12.3205L18.8121 23.818L33.9385 43.7187L49.0648 23.818L33.9385 12.3205ZM41.2916 2.64654L56.418 14.144L56.4262 14.1333L56.4344 14.1225L41.2916 2.64654ZM44.7478 1.54133L59.8743 13.0387L83.0549 -17.4587H44.7478V1.54133ZM35.2468 14.0413L20.1203 2.54395L11.3812 14.0415L20.1205 25.539L35.2468 14.0413ZM45.1916 27.1247V46.1247H83.4995L60.3179 15.627L45.1916 27.1247ZM41.7343 26.0195L56.8662 14.5292L56.8604 14.5216L41.7343 26.0195ZM33.9374 15.7622L49.0636 4.26434L33.9374 -15.6351L18.8113 4.26434L33.9374 15.7622ZM26.1405 26.0195L41.2641 37.5206L41.2667 37.5173L26.1405 26.0195ZM22.6833 27.1247L7.55756 15.6263L-15.6271 46.1247H22.6833V27.1247ZM2.16659 15.083V-3.917H-16.8334V15.083H2.16659ZM9.32075 25.2445L13.5757 6.72703L13.5746 6.72677L9.32075 25.2445ZM19.9749 20.2007L2.87189 11.9251L2.86907 11.9309L19.9749 20.2007ZM22.5572 19.2497L40.8375 24.4294L47.6889 0.249667H22.5572V19.2497ZM11.4041 27.582L11.1795 46.5806L11.1802 46.5806L11.4041 27.582ZM9.63638 0.653835L12.6572 19.4122L12.6583 19.412L9.63638 0.653835ZM22.9999 15.083V34.083H41.9999V15.083H22.9999ZM2.16659 12.9997H-16.8334V31.9997H2.16659V12.9997ZM20.9166 12.9997V31.9997H39.9166V12.9997H20.9166ZM9.37908 2.82467L5.23735 -15.7184L5.23406 -15.7177L9.37908 2.82467ZM47.7556 2.54395L38.2545 -9.95605L8.00157 13.0387L17.5026 25.5387L47.7556 2.54395ZM23.128 20.5413H24.3572V-17.4587H23.128V20.5413ZM24.3572 20.5413C19.3003 20.5413 14.5221 18.178 11.4535 14.1368L41.7172 -8.84373C37.5902 -14.2787 31.1642 -17.4587 24.3572 -17.4587V20.5413ZM11.4589 14.144L18.8121 23.818L49.0648 0.82301L41.7117 -8.85095L11.4589 14.144ZM49.0648 23.818L56.418 14.144L26.1652 -8.85095L18.8121 0.823008L49.0648 23.818ZM56.4344 14.1225C53.3596 18.1797 48.5724 20.5413 43.5187 20.5413V-17.4587C36.715 -17.4587 30.2799 -14.2804 26.1488 -8.82937L56.4344 14.1225ZM43.5187 20.5413H44.7478V-17.4587H43.5187V20.5413ZM29.6214 -9.95604L20.1203 2.54395L50.3733 25.5387L59.8743 13.0387L29.6214 -9.95604ZM20.1205 25.539L30.0653 38.6223L60.3179 15.627L50.3731 2.54368L20.1205 25.539ZM45.1916 8.12467H43.9624V46.1247H45.1916V8.12467ZM43.9624 8.12467C49.0194 8.12467 53.7975 10.488 56.8662 14.5292L26.6024 37.5097C30.7294 42.9447 37.1554 46.1247 43.9624 46.1247V8.12467ZM56.8604 14.5216L49.0636 4.26434L18.8113 27.26L26.6082 37.5173L56.8604 14.5216ZM18.8113 4.26434L11.0144 14.5216L41.2667 37.5173L49.0636 27.26L18.8113 4.26434ZM11.017 14.5183C14.0752 10.4968 18.8423 8.12467 23.9124 8.12467V46.1247C30.7325 46.1247 37.1475 42.9338 41.2641 37.5206L11.017 14.5183ZM23.9124 8.12467H22.6833V46.1247H23.9124V8.12467ZM37.8089 38.6231L47.7548 25.5397L17.5034 2.54292L7.55756 15.6263L37.8089 38.6231ZM-16.8334 15.083V15.8986H21.1666V15.083H-16.8334ZM-16.8334 15.8986C-16.8334 28.2384 -8.66266 40.6082 5.06693 43.7622L13.5746 6.72677C18.7792 7.92235 21.1666 12.3067 21.1666 15.8986H-16.8334ZM5.06579 43.7619C18.7864 46.9146 31.6204 39.7651 37.0808 28.4705L2.86907 11.9309C4.70857 8.12594 9.10298 5.69928 13.5757 6.72703L5.06579 43.7619ZM37.0779 28.4764C34.2126 34.398 28.1885 38.2497 21.4864 38.2497V0.249667C13.4947 0.249667 6.29972 4.84088 2.87189 11.9251L37.0779 28.4764ZM21.4864 38.2497H22.5572V0.249667H21.4864V38.2497ZM4.27689 14.0699C5.16882 10.9221 8.08296 8.5415 11.628 8.58328L11.1802 46.5806C25.3315 46.7474 37.1977 37.2751 40.8375 24.4294L4.27689 14.0699ZM11.6287 8.58329C17.0229 8.64705 19.0833 13.0368 19.0833 15.2309H-18.9167C-18.9167 31.0751 -6.90434 46.3669 11.1795 46.5806L11.6287 8.58329ZM19.0833 15.2309V15.083H-18.9167V15.2309H19.0833ZM19.0833 15.083V12.9997H-18.9167V15.083H19.0833ZM19.0833 12.9997V12.2538H-18.9167V12.9997H19.0833ZM19.0833 12.2538C19.0833 15.1408 17.0398 18.7064 12.6572 19.4122L6.61558 -18.1045C-8.93162 -15.6008 -18.9167 -1.93942 -18.9167 12.2538H19.0833ZM12.6583 19.412C8.10557 20.1454 3.99992 16.5278 3.99992 11.958H41.9999C41.9999 -6.51807 25.5088 -21.1482 6.61447 -18.1043L12.6583 19.412ZM3.99992 11.958V15.083H41.9999V11.958H3.99992ZM22.9999 -3.917H2.16659V34.083H22.9999V-3.917ZM2.16659 31.9997H20.9166V-6.00033H2.16659V31.9997ZM39.9166 12.9997V11.958H1.91658V12.9997H39.9166ZM39.9166 11.958C39.9166 -5.85201 23.4574 -19.788 5.23735 -15.7184L13.5208 21.3678C7.53826 22.704 1.91658 18.0013 1.91658 11.958H39.9166ZM5.23406 -15.7177C-9.12142 -12.5086 -16.8334 0.394619 -16.8334 12.6976H21.1666C21.1666 15.1922 19.2963 20.0767 13.5241 21.367L5.23406 -15.7177ZM-16.8334 12.6976V12.9997H21.1666V12.6976H-16.8334Z" fill="url(#paint1_linear_289_1781)" mask="url(#path-1-inside-1_289_1781)"/>
<defs>
<linearGradient id="paint0_linear_289_1781" x1="22.6374" y1="0.5" x2="22.6374" y2="27.5828" gradientUnits="userSpaceOnUse">
<stop stop-color="#A3DFB7"/>
<stop offset="0.5" stop-color="#2A98DC"/>
<stop offset="1" stop-color="#6DDBDF"/>
</linearGradient>
<linearGradient id="paint1_linear_289_1781" x1="22.6374" y1="0.5" x2="22.6374" y2="27.5828" gradientUnits="userSpaceOnUse">
<stop stop-color="#A3DFB7"/>
<stop offset="0.5" stop-color="#2A98DC"/>
<stop offset="1" stop-color="#6DDBDF"/>
</linearGradient>
</defs>
</svg>
