<svg width="61" height="58" viewBox="0 0 61 58" fill="none" xmlns="http://www.w3.org/2000/svg">
<g clip-path="url(#clip0_289_1812)">
<path d="M24.0206 28.0387H36.3049C38.1774 28.0129 39.9839 27.3426 41.4201 26.1408C42.8563 24.939 43.8346 23.2791 44.1903 21.4404V6.51685C44.1903 6.51685 41.2414 0 29.3482 0C17.4549 0 15.4347 5.45786 15.4347 5.45786V13.1314H29.8206V15.9663H10.6611C9.32562 15.9577 8.00165 16.2136 6.76555 16.7192C5.52945 17.2248 4.40568 17.9701 3.45907 18.9122C2.51245 19.8543 1.76171 20.9744 1.25016 22.2081C0.738604 23.4417 0.476352 24.7645 0.478531 26.1V34.5067C0.476389 35.6741 0.704475 36.8305 1.14974 37.9096C1.595 38.9888 2.2487 39.9695 3.07342 40.7958C3.89815 41.622 4.8777 42.2775 5.95604 42.7248C7.03438 43.172 8.19033 43.4022 9.35773 43.4022H14.115V37.928C14.1129 36.6274 14.3677 35.3391 14.865 34.1373C15.3622 32.9354 16.092 31.8436 17.0125 30.9247C17.933 30.0057 19.0259 29.2777 20.2286 28.7824C21.4313 28.2872 22.72 28.0344 24.0206 28.0387ZM21.8049 9.44943C21.3183 9.44943 20.8427 9.30514 20.4381 9.03482C20.0336 8.7645 19.7183 8.38029 19.5321 7.93076C19.3459 7.48123 19.2971 6.98659 19.3921 6.50937C19.487 6.03216 19.7213 5.59381 20.0654 5.24976C20.4094 4.90571 20.8478 4.6714 21.325 4.57648C21.8022 4.48155 22.2968 4.53027 22.7464 4.71647C23.1959 4.90267 23.5801 5.21799 23.8504 5.62255C24.1207 6.02712 24.265 6.50275 24.265 6.98932C24.2607 7.64046 24.0002 8.26372 23.5398 8.72416C23.0793 9.1846 22.4561 9.44516 21.8049 9.44943Z" fill="url(#paint0_linear_289_1812)"/>
<path d="M51.4566 14.6143H46.6993V20.0722C46.7014 21.3701 46.4476 22.6557 45.9524 23.8554C45.4572 25.0551 44.7303 26.1455 43.8133 27.064C42.8963 27.9825 41.8072 28.7112 40.6083 29.2084C39.4093 29.7056 38.1242 29.9615 36.8262 29.9615H24.5094C22.6369 29.9873 20.8304 30.6576 19.3942 31.8594C17.958 33.0612 16.9797 34.7211 16.624 36.5598V51.4834C16.624 51.4834 19.5729 58.0002 31.4661 58.0002C43.3594 58.0002 45.3796 52.5424 45.3796 52.5424V44.9176H30.9937V42.0339H50.1532C51.4887 42.0425 52.8126 41.7867 54.0487 41.281C55.2848 40.7754 56.4086 40.0301 57.3552 39.088C58.3018 38.1459 59.0526 37.0258 59.5641 35.7921C60.0757 34.5585 60.3379 33.2358 60.3358 31.9002V23.5098C60.3379 22.3424 60.1098 21.186 59.6646 20.1069C59.2193 19.0277 58.5656 18.047 57.7409 17.2207C56.9162 16.3945 55.9366 15.739 54.8583 15.2918C53.7799 14.8445 52.624 14.6143 51.4566 14.6143ZM39.0094 48.5508C39.496 48.5508 39.9716 48.6951 40.3762 48.9654C40.7807 49.2357 41.096 49.6199 41.2822 50.0695C41.4684 50.519 41.5172 51.0136 41.4222 51.4908C41.3273 51.9681 41.093 52.4064 40.7489 52.7505C40.4049 53.0945 39.9665 53.3288 39.4893 53.4237C39.0121 53.5187 38.5175 53.4699 38.0679 53.2837C37.6184 53.0975 37.2342 52.7822 36.9639 52.3777C36.6936 51.9731 36.5493 51.4975 36.5493 51.0109C36.5536 50.3598 36.8141 49.7365 37.2745 49.2761C37.735 48.8156 38.3582 48.5551 39.0094 48.5508Z" fill="url(#paint1_linear_289_1812)"/>
</g>
<defs>
<linearGradient id="paint0_linear_289_1812" x1="22.3344" y1="0" x2="22.3344" y2="43.4022" gradientUnits="userSpaceOnUse">
<stop stop-color="#A3DFB7"/>
<stop offset="0.5" stop-color="#2A98DC"/>
<stop offset="1" stop-color="#6DDBDF"/>
</linearGradient>
<linearGradient id="paint1_linear_289_1812" x1="38.4799" y1="14.6143" x2="38.4799" y2="58.0002" gradientUnits="userSpaceOnUse">
<stop stop-color="#A3DFB7"/>
<stop offset="0.5" stop-color="#2A98DC"/>
<stop offset="1" stop-color="#6DDBDF"/>
</linearGradient>
<clipPath id="clip0_289_1812">
<rect width="61" height="58" fill="white"/>
</clipPath>
</defs>
</svg>
