<svg width="34" height="34" viewBox="0 0 34 34" fill="none" xmlns="http://www.w3.org/2000/svg">
<g clip-path="url(#clip0_289_1817)">
<path d="M10.5749 15.4831L14.9447 8.6817L32.5978 4.06198L28.7528 0.696289L10.176 4.67633L2.04516 25.5551L11.9164 19.9457L22.7963 18.8452L19.8866 25.2732L1.39893 29.7842L6.20807 33.3724L13.1091 31.9513L23.5689 29.941L31.7962 8.41007L20.8699 14.2153L10.5749 15.4831Z" fill="url(#paint0_linear_289_1817)"/>
<path d="M10.5749 15.4833L10.3646 15.3482L10.0765 15.7966L10.6054 15.7315L10.5749 15.4833ZM14.9447 8.68192L14.8814 8.44006L14.7871 8.46475L14.7344 8.54678L14.9447 8.68192ZM32.5978 4.0622L32.6611 4.30406L33.1173 4.18468L32.7625 3.87409L32.5978 4.0622ZM28.7528 0.696512L28.9174 0.508399L28.8231 0.425781L28.7004 0.452059L28.7528 0.696512ZM10.176 4.67655L10.1236 4.4321L9.99185 4.46032L9.94297 4.58583L10.176 4.67655ZM2.04514 25.5553L1.81218 25.4645L1.55681 26.1203L2.16866 25.7726L2.04514 25.5553ZM11.9164 19.9459L11.8912 19.6971L11.8387 19.7025L11.7929 19.7285L11.9164 19.9459ZM22.7963 18.8454L23.024 18.9485L23.2031 18.553L22.7711 18.5967L22.7963 18.8454ZM19.8866 25.2734L19.9459 25.5163L20.0641 25.4874L20.1144 25.3765L19.8866 25.2734ZM1.39891 29.7844L1.33965 29.5416L0.823975 29.6674L1.24941 29.9848L1.39891 29.7844ZM6.20805 33.3726L6.05855 33.573L6.14853 33.6401L6.25848 33.6174L6.20805 33.3726ZM13.1091 31.9515L13.0619 31.706L13.0587 31.7067L13.1091 31.9515ZM23.5689 29.9412L23.6161 30.1867L23.7527 30.1605L23.8024 30.0305L23.5689 29.9412ZM31.7962 8.41029L32.0298 8.49952L32.2678 7.87666L31.6789 8.18951L31.7962 8.41029ZM20.8699 14.2155L20.9005 14.4636L20.9464 14.458L20.9872 14.4363L20.8699 14.2155ZM10.7852 15.6185L15.155 8.81705L14.7344 8.54678L10.3646 15.3482L10.7852 15.6185ZM15.008 8.92377L32.6611 4.30406L32.5345 3.82035L14.8814 8.44006L15.008 8.92377ZM32.7625 3.87409L28.9174 0.508399L28.5881 0.884624L32.4331 4.25032L32.7625 3.87409ZM28.7004 0.452059L10.1236 4.4321L10.2283 4.92101L28.8051 0.940964L28.7004 0.452059ZM9.94297 4.58583L1.81218 25.4645L2.2781 25.646L10.4089 4.76728L9.94297 4.58583ZM2.16866 25.7726L12.0399 20.1632L11.7929 19.7285L1.92163 25.3379L2.16866 25.7726ZM11.9416 20.1946L22.8214 19.0942L22.7711 18.5967L11.8912 19.6971L11.9416 20.1946ZM22.5685 18.7423L19.6588 25.1703L20.1144 25.3765L23.024 18.9485L22.5685 18.7423ZM19.8273 25.0306L1.33965 29.5416L1.45817 30.0273L19.9459 25.5163L19.8273 25.0306ZM1.24941 29.9848L6.05855 33.573L6.35755 33.1722L1.54841 29.5841L1.24941 29.9848ZM6.25848 33.6174L13.1595 32.1964L13.0587 31.7067L6.15763 33.1277L6.25848 33.6174ZM13.1563 32.197L23.6161 30.1867L23.5217 29.6957L13.0619 31.706L13.1563 32.197ZM23.8024 30.0305L32.0298 8.49952L31.5627 8.32105L23.3353 29.852L23.8024 30.0305ZM31.6789 8.18951L20.7526 13.9947L20.9872 14.4363L31.9135 8.63106L31.6789 8.18951ZM20.8394 13.9674L10.5443 15.2352L10.6054 15.7315L20.9005 14.4636L20.8394 13.9674Z" fill="url(#paint1_linear_289_1817)"/>
</g>
<defs>
<linearGradient id="paint0_linear_289_1817" x1="16.7751" y1="0.862765" x2="17.2249" y2="33.2193" gradientUnits="userSpaceOnUse">
<stop stop-color="#0019FF"/>
<stop offset="0.5" stop-color="#5B64BC"/>
<stop offset="1" stop-color="#0700D5"/>
</linearGradient>
<linearGradient id="paint1_linear_289_1817" x1="16.9706" y1="0.425781" x2="16.9706" y2="33.6401" gradientUnits="userSpaceOnUse">
<stop stop-color="#491EF7"/>
<stop offset="0.5" stop-color="#1050B6"/>
<stop offset="1" stop-color="#2B3BEA"/>
</linearGradient>
<clipPath id="clip0_289_1817">
<rect width="34" height="34" fill="white"/>
</clipPath>
</defs>
</svg>
